HIERARCHY
ROOT Hips
{
  OFFSET -35.4901 99.2528 17.4586
  CHANNELS 6 Xposition Yposition Zposition Zrotation Xrotation Yrotation
  JOINT LeftUpLeg
  {
    OFFSET 8.64259 1.95398 -2.38835
    CHANNELS 3 Zrotation Xrotation Yrotation
    JOINT LeftLeg
    {
      OFFSET 43.7702 0 0
      CHANNELS 3 Zrotation Xrotation Yrotation
      JOINT LeftFoot
      {
        OFFSET 40.6238 0 0
        CHANNELS 3 Zrotation Xrotation Yrotation
        JOINT LeftToeBase
        {
          OFFSET 12.7242 0 0
          CHANNELS 3 Zrotation Xrotation Yrotation
          End Site
          {
            OFFSET 0 0 0
          }
        }
      }
    }
  }
  JOINT RightUpLeg
  {
    OFFSET -8.2249 1.95398 -2.59336
    CHANNELS 3 Zrotation Xrotation Yrotation
    JOINT RightLeg
    {
      OFFSET 43.5653 0 0
      CHANNELS 3 Zrotation Xrotation Yrotation
      JOINT RightFoot
      {
        OFFSET 40.6238 0 0
        CHANNELS 3 Zrotation Xrotation Yrotation
        JOINT RightToeBase
        {
          OFFSET 12.7242 0 0
          CHANNELS 3 Zrotation Xrotation Yrotation
          End Site
          {
            OFFSET 0 0 0
          }
        }
      }
    }
  }
  JOINT Spine
  {
    OFFSET 0.165834 0.87714 6.61349
    CHANNELS 3 Zrotation Xrotation Yrotation
    JOINT Spine1
    {
      OFFSET 7.38963 1.71661e-005 0
      CHANNELS 3 Zrotation Xrotation Yrotation
      JOINT Spine2
      {
        OFFSET 11.9445 1.14441e-005 0
        CHANNELS 3 Zrotation Xrotation Yrotation
        JOINT Spine3
        {
          OFFSET 14.7254 4.19617e-005 0
          CHANNELS 3 Zrotation Xrotation Yrotation
          JOINT Spine4
          {
            OFFSET 10.9679 0 0
            CHANNELS 3 Zrotation Xrotation Yrotation
            JOINT RightShoulder
            {
              OFFSET 2.46616 -1.6653 3.69651
              CHANNELS 3 Zrotation Xrotation Yrotation
              JOINT RightArm
              {
                OFFSET 13.0012 0 0
                CHANNELS 3 Zrotation Xrotation Yrotation
                JOINT RightForeArm
                {
                  OFFSET 28.7848 1.52588e-005 0
                  CHANNELS 3 Zrotation Xrotation Yrotation
                  JOINT RightHand
                  {
                    OFFSET 26.5688 1.52588e-005 0
                    CHANNELS 3 Zrotation Xrotation Yrotation
                    End Site
                    {
                      OFFSET 0 0 0
                    }
                  }
                }
              }
            }
            JOINT LeftShoulder
            {
              OFFSET 2.38034 -1.29275 -3.7523
              CHANNELS 3 Zrotation Xrotation Yrotation
              JOINT LeftArm
              {
                OFFSET 16.3182 6.10351e-005 0
                CHANNELS 3 Zrotation Xrotation Yrotation
                JOINT LeftForeArm
                {
                  OFFSET 27.0901 0 0
                  CHANNELS 3 Zrotation Xrotation Yrotation
                  JOINT LeftHand
                  {
                    OFFSET 24.5451 1.52588e-005 0
                    CHANNELS 3 Zrotation Xrotation Yrotation
                    End Site
                    {
                      OFFSET 0 0 0
                    }
                  }
                }
              }
            }
            JOINT Neck
            {
              OFFSET 5.0226 -0.0266342 0
              CHANNELS 3 Zrotation Xrotation Yrotation
              JOINT Head
              {
                OFFSET 6.69364 2.86102e-005 0
                CHANNELS 3 Zrotation Xrotation Yrotation
                End Site
                {
                  OFFSET 0 0 0
                }
              }
            }
          }
        }
      }
    }
  }
}
MOTION
Frames:	17
Frame Time:	0.0416667
-219.521 94.2233 189.084 -101.763 -44.6787 -102.042 -177.316 6.54317 85.9585 -32.0215 7.42737 -2.12089 77.9954 6.95877 -3.00705 10.7849 -3.73633 5.86283 173.172 16.1601 83.0446 -56.5258 -12.9527 -2.58474 70.2081 -5.67946 -1.46821 26.2887 -0.403808 1.36795 0.934821 8.46374 -89.9066 9.94712 1.9056 0.0298359 -1.72242 1.90506 -0.0541026 -24.268 1.80849 0.601347 -4.25532 1.80851 0.601352 94.1923 -27.3829 -99.0662 41.493 -11.4481 -4.59831 3.88443 -31.3001 -13.0143 -23.3712 -0.206989 -8.04165 -82.9834 -51.6308 89.4396 -24.434 9.93314 3.05969 2.54827 2.42077 -11.6163 -0.218437 -0.17279 -8.7437 -5.21301 -2.58741 -3.58867 0.0339438 -2.32267 -5.22835 
-216.502 93.7691 184.882 -101.665 -46.3103 -102.852 -176.831 10.6131 85.7191 -31.9221 11.0601 -2.7221 75.1718 6.71034 0.140031 9.24346 -2.82707 4.75395 173.391 5.83709 81.3335 -60.013 -18.8595 -4.19532 69.8128 -5.17858 -0.593411 24.8287 -0.548886 1.81642 1.19033 8.24855 -89.6038 10.3723 2.55284 0.563965 -1.29621 2.57518 0.45099 -23.8472 2.26527 1.30547 -3.8345 2.26526 1.30546 89.5862 -28.6851 -108.123 39.7793 -5.46887 -0.732825 -0.324481 -31.0156 -18.7295 -25.8977 0.00336025 -8.80785 -82.481 -52.4009 90.2507 -26.6139 4.47867 8.78095 3.66544 -1.69696 -13.485 1.26894 -0.139079 -5.93663 -5.75244 -4.21222 -3.79165 0.51748 -3.99909 -7.17376 
-212.955 92.9572 179.557 -100.114 -47.8266 -102.025 -176.944 16.8927 85.571 -32.4557 11.8831 -2.29577 70.5679 5.01121 0.13929 9.9137 -2.67161 4.57539 172.94 -4.34107 82.0184 -49.0389 -24.0262 -6.2721 73.5934 -7.05745 -2.8769 29.2222 -2.27741 6.41737 1.35523 8.0543 -89.3436 10.7527 3.00138 1.02853 -0.91514 3.04374 0.895327 -23.4684 2.55349 1.88343 -3.45577 2.55348 1.88342 89.5729 -27.9632 -108.432 39.5878 -5.74375 -3.67825 -2.98924 -30.0174 -22.1641 -25.9639 0.252694 -9.94817 -81.3878 -52.6636 91.8745 -27.6692 3.43099 9.76309 4.33566 -1.66759 -16.0875 -3.01216 -0.057135 -8.73708 -4.57715 -5.31781 -4.443 0.269708 -4.9968 -8.51707 
-207.97 92.2018 172.005 -96.9345 -47.6657 -99.0106 -177.913 22.5289 86.8472 -26.8329 12.0669 -1.65668 62.8115 1.92923 -0.621869 8.69841 -3.98534 6.10249 172.885 -7.88192 84.4453 -34.2078 -22.2011 -7.00115 83.9406 -12.2506 -4.06208 33.5481 -2.32537 6.36029 1.75241 7.95683 -89.3463 10.9459 3.79143 0.942389 -0.719693 3.82921 0.774376 -23.2881 3.33278 2.03934 -3.27548 3.33276 2.03934 89.4825 -26.3873 -109.304 39.0555 -5.14472 -5.51033 -5.82689 -30.204 -26.3176 -27.0287 0.420615 -10.647 -80.4228 -56.4367 93.4707 -23.5169 1.60446 5.4746 7.14711 3.63882 -17.9917 -4.74427 0.0247497 -10.1482 -3.1653 -6.37332 -1.71727 1.21713 -6.43147 -11.4651 
-202.825 92.6659 163.953 -96.26 -50.4338 -95.8326 -178.777 24.4507 89.5389 -19.1415 8.66052 -1.3126 62.9578 2.15111 0.0314843 7.711 -2.56777 4.45588 172.77 -4.53661 87.8147 -28.5997 -21.3296 -3.97621 87.3264 -13.3973 -2.44381 26.5736 -1.38936 3.84738 1.49487 8.12493 -89.7628 10.6243 3.08638 0.191996 -1.04296 3.09183 0.055837 -23.6046 2.88586 1.11147 -3.59196 2.88588 1.11148 89.3997 -25.2877 -109.973 36.4623 -6.94947 -7.89589 -7.2387 -31.2994 -28.4892 -25.5285 0.446357 -11.3892 -79.5663 -59.2064 94.7609 -18.8315 3.44724 -0.6601 6.97811 5.99803 -16.1606 -3.00517 -0.0734416 -7.463 0.544246 -6.08447 1.43939 0.479214 -6.45439 -11.712 
-199.608 94.413 157.469 -97.6752 -55.0766 -97.5352 -177.988 23.524 89.0194 -22.3639 -3.33299 -2.26227 63.7955 2.80603 -1.26025 14.9887 -5.85068 8.7585 173.421 -0.980488 90.0879 -27.135 -17.1323 -3.20994 82.3468 -10.6369 -2.70463 23.3167 -1.41949 4.05252 0.880509 8.1665 -89.8204 10.5399 1.83636 0.192696 -1.1297 1.84306 0.111648 -23.674 1.69352 0.735846 -3.66137 1.69351 0.735838 89.8566 -26.5305 -108.461 36.3203 -7.69385 -6.89258 -4.87881 -28.288 -25.7875 -25.9648 0.361118 -10.2846 -82.6083 -55.7893 90.3314 -20.1258 5.88572 -4.74777 4.47349 5.51759 -9.13449 -1.08401 -0.136671 -8.36356 -0.289879 -5.40212 -0.000322193 0.390102 -5.52171 -9.12617 
-197.168 95.2832 152.471 -99.0193 -57.7353 -99.3501 -175.623 23.5035 90.1563 -39.93 7.24312 -0.808258 68.8374 4.75574 -0.956179 11.8882 -1.17472 2.70416 172.819 1.65382 89.2746 -25.7784 -16.0021 -2.27804 78.273 -8.19398 -1.49558 22.9438 -0.77848 2.56836 0.449955 8.09141 -89.8021 10.6906 0.987363 0.302445 -0.979981 0.999691 0.258692 -23.5174 0.850795 0.585221 -3.50479 0.850791 0.585216 90.6568 -28.2306 -106.119 39.6739 -5.90997 -2.32 -4.12062 -29.3361 -24.8028 -27.7357 0.272319 -9.61167 -83.7302 -50.9244 88.2634 -22.1069 9.33086 -9.03965 3.01104 6.05047 -6.70799 0.0439071 -0.123411 -6.2974 0.0152547 -4.84983 -2.57254 -0.401644 -4.4991 -5.04839 
-194.546 95.2634 148.27 -99.3384 -58.4447 -99.0859 -174.923 19.5852 93.2261 -55.2194 13.8633 3.10297 72.7285 6.26369 -1.67032 12.9132 -2.50832 4.362 173.031 5.74533 90.6485 -27.3529 -15.5144 -1.74895 76.2077 -7.27119 -1.56663 22.5283 -0.891043 2.85909 0.00470492 7.93687 -89.9904 10.999 0.0139575 0.0189106 -0.671967 0.0147562 0.0182615 -23.207 0.00761584 0.0222265 -3.19431 0.00761992 0.0222195 91.1282 -28.7391 -104.965 42.2275 -7.55036 2.06699 -1.73596 -29.9875 -21.5174 -26.2943 0.0864574 -9.03219 -83.7876 -49.8258 88.0512 -22.2053 11.0811 -11.165 3.53026 6.33867 -10.8597 1.6591 -0.184455 -7.04078 0.101312 -3.27024 -2.845 -0.774379 -2.85168 -2.04781 
-191.819 95.1026 144.797 -102.054 -58.8213 -99.4997 -174.393 10.567 98.044 -60.9525 21.4698 7.14824 71.6078 5.88174 -1.09919 14.8543 -1.50721 3.04312 173.42 7.45061 92.0791 -27.524 -15.0019 -1.03871 73.4635 -6.1504 -1.89187 23.2691 -0.868766 2.7587 -0.457835 7.89676 -90.3496 11.0775 -1.07346 -0.592017 -0.593133 -1.09847 -0.544202 -23.1296 -0.8459 -0.887267 -3.11697 -0.845914 -0.887273 91.0671 -29.5734 -104.789 44.2353 -7.42765 6.07803 2.87038 -25.9996 -15.5312 -25.4016 0.101021 -8.58804 -83.7736 -49.1158 87.9948 -24.4015 11.4354 -13.5367 4.87478 7.13231 -14.1524 1.81961 -0.239398 -8.43632 -1.40729 -1.4489 -1.75484 -0.724406 -1.21112 -0.103949 
-188.2 94.549 141.494 -103.219 -59.1988 -99.1745 -172.369 1.60265 101.308 -57.5139 32.5181 9.53879 68.9467 4.55759 -1.68605 15.0268 -0.594158 1.89436 174.097 10.878 92.9003 -28.9283 -13.7933 -1.04328 70.7196 -4.87659 -1.42739 23.4289 -0.898348 2.81696 -0.776432 7.88238 -90.6314 11.1014 -1.83862 -1.0787 -0.568586 -1.88427 -0.996723 -23.1072 -1.42946 -1.58142 -3.09457 -1.42944 -1.58142 91.0571 -30.7312 -104.401 44.8145 -5.36687 8.29154 5.28052 -22.5619 -11.1787 -22.04 0.2441 -9.50351 -83.5379 -48.169 88.2531 -26.6951 12.0916 -17.9633 7.11108 11.2701 -16.4969 -0.482359 -0.183928 -9.90979 -1.93112 -0.15623 -0.684096 -1.48179 -0.0652036 1.37714 
-182.983 93.977 137.411 -103.167 -60.105 -98.8157 -170.596 -3.63371 101.791 -48.2639 38.5858 8.56807 71.1053 5.4023 -0.77296 24.7132 1.54678 -2.63198 174.134 15.327 92.0095 -28.554 -13.855 -1.16597 65.8172 -2.73864 -1.29139 23.4196 -1.09256 3.273 -1.03323 7.93295 -90.8866 10.9893 -2.46755 -1.52859 -0.680078 -2.53241 -1.41849 -23.2202 -1.89416 -2.19951 -3.20751 -1.89416 -2.19952 91.8185 -30.2495 -103.057 44.7075 -4.2801 8.0143 4.7715 -25.0434 -11.4847 -20.272 0.332143 -10.9571 -84.1516 -48.9081 87.3913 -27.2421 12.5983 -22.6552 8.563 13.8199 -17.7747 0.00675825 -0.226644 -10.8398 -1.61204 0.601506 1.1876 -1.90184 0.44784 1.92925 
-175.918 93.2786 131.744 -100.394 -62.3522 -97.1256 -172.282 -2.35162 98.7002 -41.4816 34.5196 6.38109 80.7452 9.3581 -2.16259 32.0984 1.42368 -2.8728 173.841 20.4361 89.6793 -23.2631 -14.2193 -1.57128 56.9119 1.09265 0.488085 25.3977 -0.95293 2.80106 -1.25999 7.96664 -90.8639 10.9205 -2.90812 -1.44409 -0.747802 -2.96884 -1.31463 -23.2949 -2.33972 -2.2515 -3.28223 -2.33971 -2.25151 91.5944 -32.0122 -102.928 41.9448 -2.8204 5.8892 2.40026 -24.4919 -16.2593 -19.8181 0.762359 -13.8079 -84.6439 -45.9314 86.2491 -29.4688 13.0553 -26.7694 10.4375 18.3637 -17.9478 -1.83315 -0.124806 -11.8567 -0.901083 0.477905 -1.30792 -1.97282 0.647521 3.417 
-168.633 93.5038 126.031 -97.8485 -59.8529 -97.8071 -174.944 2.69514 92.5096 -40.6919 28.0754 3.4998 84.7008 10.5129 -4.58974 21.9549 0.749688 -0.534162 173.451 21.6911 86.4909 -13.6779 -15.0373 -2.78523 58.0701 0.428387 -0.310321 25.9882 -1.00297 2.90243 -0.899394 8.02544 -90.5026 10.8162 -2.02283 -0.811234 -0.853358 -2.05657 -0.721404 -23.3959 -1.68548 -1.38177 -3.38326 -1.68551 -1.38179 91.4897 -33.677 -102.611 38.6771 -4.1743 2.47177 -0.483776 -27.3864 -18.7446 -27.0489 0.122631 -8.68429 -84.7405 -45.9731 86.1034 -27.486 14.2334 -27.3575 10.0435 20.5886 -17.5232 -1.3005 -0.148105 -10.5186 -1.95175 0.0285678 -3.4448 -2.88571 0.418416 4.05724 
-162.622 94.8451 121.657 -95.1394 -53.0234 -95.4835 -175.315 5.87975 89.8347 -35.8049 21.8338 0.255598 80.0124 8.26694 -6.16114 21.1061 -0.785335 1.78132 172.469 19.8747 87.7459 -8.34016 -2.57915 -1.28881 67.4734 -4.18174 -2.57911 17.2471 -0.193085 1.71971 -0.1579 8.0104 -90.3558 10.8509 -0.478706 -0.663049 -0.820064 -0.507438 -0.641337 -23.3541 -0.257326 -0.776271 -3.34146 -0.257321 -0.776265 90.3252 -31.5878 -105.535 39.1389 -5.19997 0.15567 1.05779 -21.1093 -17.0563 -26.6788 0.555772 -9.91393 -83.8654 -47.6954 87.6915 -26.2646 13.6276 -20.4821 6.67775 14.8162 -14.3992 -0.447061 -0.169563 -8.99617 -4.23078 1.29016 -2.31763 -3.86396 1.47605 2.6573 
-157.682 96.0251 118.423 -93.8394 -46.9361 -93.5699 -176.338 6.07314 88.4528 -28.996 16.4127 -0.98002 78.4528 7.99515 -2.87062 15.7548 -1.20406 2.65452 172.494 22.1503 88.6346 -26.3977 -0.785968 -0.246993 67.3162 -4.07228 -1.91591 19.5793 -0.945728 3.1539 0.4404 7.9981 -90.2133 10.8795 0.77829 -0.496776 -0.791293 0.755677 -0.530553 -23.3282 0.891624 -0.239887 -3.31551 0.891614 -0.2399 89.4343 -29.988 -107.881 39.1 -7.5365 -2.76492 0.902211 -27.4951 -17.9982 -24.3932 0.251125 -9.80425 -82.9785 -49.2051 89.2194 -24.2272 13.3842 -11.5929 3.02641 7.4108 -10.7984 0.0126143 -0.163668 -8.17516 -5.06471 3.21894 -0.472661 -5.5284 3.20185 1.64119 
-153.897 96.3919 115.464 -93.8379 -44.7738 -93.8167 -176.812 7.69231 87.7791 -26.4273 14.1743 -1.79473 76.2152 6.98002 -2.47945 16.3154 -0.472818 1.6059 174.135 19.3622 87.0056 -44.4466 -7.62578 -2.24968 70.6215 -5.67472 -2.13786 21.2436 -1.33516 3.92517 0.80162 7.96234 -89.9899 10.9507 1.60058 -0.13201 -0.719304 1.59323 -0.202343 -23.2621 1.56625 0.355262 -3.2495 1.56623 0.355245 89.4676 -28.5137 -108.418 40.4721 -8.23903 -3.7455 -1.37414 -29.669 -21.1043 -26.1196 0.182645 -9.49071 -82.5305 -50.9917 90.0574 -22.8728 12.7919 -4.57502 1.46305 4.55001 -8.13716 0.852103 -0.138113 -6.02664 -7.48827 3.1877 0.678414 -4.55654 3.16621 -1.32321 
-150.443 96.065 112.223 -94.3961 -45.0573 -95.4628 -177.252 10.8223 86.6027 -26.1384 14.49 -2.33351 71.8698 5.17126 -3.00117 18.1275 -0.839016 2.01856 173.652 12.0887 84.4784 -53.5812 -9.39237 -3.09005 70.5075 -5.65276 -1.53285 22.7448 -0.823881 2.6895 1.1209 7.9162 -89.6828 11.0389 2.37839 0.402747 -0.629909 2.39385 0.297608 -23.1794 2.14738 1.09925 -3.1668 2.14735 1.09922 89.224 -28.1357 -109.069 41.3263 -8.52398 -2.99209 -2.79975 -29.7615 -24.0272 -26.7333 0.214795 -9.56882 -81.9754 -51.9372 90.9602 -23.791 10.4597 0.497757 2.08078 2.77597 -8.87208 0.868059 -0.141782 -6.1819 -9.16729 1.79867 -1.07873 -4.58384 1.91689 -2.24864 
